<svg width="635" height="556" viewBox="0 0 635 556" fill="none" xmlns="http://www.w3.org/2000/svg">
<path fill-rule="evenodd" clip-rule="evenodd" d="M232.361 110.125C271.924 113.208 311.872 128.87 352.205 157.125L352.971 157.896L363.377 140.562L365.695 137.479C403.971 100.75 444.815 74.1724 488.231 57.7337L493.241 56.1921C452.392 57.9943 416.168 71.0881 384.574 95.4895C376.356 101.906 368.648 109.099 361.454 117.063C357.085 77.7655 365.558 47.9695 386.886 27.6828C424.908 -7.75453 501.98 -9.17187 618.1 23.4484L634.662 27.6776L624.642 42.3229C552.964 144.282 472.042 182.163 381.868 155.968C375.702 167.01 371.076 176.766 367.994 185.244L364.145 196.031C359.004 210.927 356.051 227.364 355.285 245.337V247.655H331.004V244.186C331.514 226.722 334.212 209.77 339.098 193.332L336.4 201.425L342.566 181.389L337.551 180.233C283.608 211.306 227.087 206.176 168.004 164.821C155.681 155.831 141.931 144.018 126.775 129.378L110.587 112.816L126.775 105.493C146.296 96.7584 161.067 90.4662 171.087 86.6182C238.394 61.1915 287.207 58.4928 317.527 78.5244C332.423 89.0556 342.314 104.722 347.188 125.524C337.433 122.186 327.792 119.488 318.292 117.436C286.954 109.988 255.095 107.16 222.73 108.962L232.361 110.125ZM599.988 200.656C610.264 199.885 618.357 202.067 624.264 207.208C630.17 213.114 632.613 220.817 631.587 230.322C630.821 241.625 626.706 250.994 619.258 258.442L461.258 426.029L235.832 426.8L204.42 458.967L227.352 483.431L152.982 555.087L137.566 538.904H137.947L0 395.211L76.688 323.164L90.172 337.419C119.708 303.007 149.38 280.924 179.188 271.159C205.652 263.2 232.751 264.997 260.495 276.554C262.286 277.836 264.474 278.737 267.042 279.252H427.735C439.292 279.252 448.923 282.971 456.631 290.424C460.745 293.763 463.443 297.101 464.725 300.445L467.037 305.836C467.808 308.919 468.199 312.133 468.199 315.466C468.199 324.455 464.339 332.163 456.636 338.581C448.673 346.289 439.043 350.138 427.74 350.138L338.724 349.56V374.216L427.74 374.794C445.464 374.794 460.62 368.882 473.209 357.07C486.314 345.773 492.86 331.903 492.86 315.466C492.86 311.101 492.475 306.476 491.699 301.597L573.781 215.69C582 207.466 590.735 202.461 599.989 200.659L599.988 200.656Z" fill="black"/>
</svg>
